<svg width="250" height="250" viewBox="0 0 250 250" fill="none" xmlns="http://www.w3.org/2000/svg">
<g clip-path="url(#clip0_13_4)">
<circle cx="125" cy="125" r="125" fill="white"/>
<path d="M124.204 55C169.133 55 206.543 99.3204 206.543 145.374C206.543 156.761 204.238 165.187 200.404 171.51C196.588 177.804 191.026 182.394 183.848 185.745C169.178 192.592 148.411 194 124.204 194C99.9968 194 79.2305 192.592 64.5605 185.745C57.3817 182.394 51.8203 177.804 48.0039 171.51C44.1699 165.187 41.8652 156.761 41.8652 145.374C41.8652 99.3204 79.2752 55 124.204 55Z" stroke="black" stroke-width="10"/>
<ellipse cx="94.3998" cy="84.6683" rx="6.63861" ry="6.63861" fill="black"/>
<ellipse cx="154.147" cy="84.6683" rx="6.63861" ry="6.63861" fill="black"/>
<path d="M112.84 88.7252C112.84 88.7252 118.004 100.896 124.274 88.7252C130.717 100.896 135.707 88.7252 135.707 88.7252" stroke="black" stroke-width="5"/>
<path d="M43.0139 161.775C43.0139 161.775 21.2804 159.324 18.2325 149.635C15.1846 139.946 43.1047 124.372 43.1047 124.372" stroke="black" stroke-width="10"/>
<path d="M206.743 124.372C206.743 124.372 228.476 126.823 231.524 136.513C234.572 146.202 206.652 161.775 206.652 161.775" stroke="black" stroke-width="10"/>
<circle cx="81.589" cy="180" r="19" fill="black"/>
<circle cx="166.589" cy="180" r="19" fill="black"/>
</g>
<defs>
<clipPath id="clip0_13_4">
<rect width="250" height="250" fill="white"/>
</clipPath>
</defs>
</svg>
